<?xml version="1.0" standalone="no"?>
<!DOCTYPE svg PUBLIC "-//W3C//DTD SVG 20010904//EN"
 "http://www.w3.org/TR/2001/REC-SVG-20010904/DTD/svg10.dtd">
<svg version="1.0" xmlns="http://www.w3.org/2000/svg"
 width="1280.000000pt" height="1280.000000pt" viewBox="0 0 1280.000000 1280.000000"
 preserveAspectRatio="xMidYMid meet">

<g transform="translate(0.000000,1280.000000) scale(0.100000,-0.100000)"
fill="#000000" stroke="none">
<path d="M2860 8138 c0 -24 -1 -1089 -2 -2368 -2 -2165 -1 -2327 15 -2357 9
-17 32 -41 50 -52 34 -21 43 -21 637 -21 l603 0 -6 1217 c-4 669 -7 1758 -7
2420 l0 1203 -645 0 -645 0 0 -42z"/>
<path d="M7315 8150 c-154 -9 -106 32 -775 -665 -106 -111 -416 -437 -523
-551 l-57 -61 0 -888 c-1 -488 2 -890 5 -894 6 -5 116 105 550 549 257 264
662 677 934 952 189 192 222 221 291 257 206 108 446 93 641 -39 117 -80 207
-206 261 -365 l23 -70 3 -1517 2 -1518 620 0 620 0 0 1479 c0 1591 0 1589 -52
1816 -170 741 -778 1325 -1543 1482 -102 21 -156 25 -365 29 -483 9 -546 9
-635 4z"/>
</g>
</svg>
